# xmcd
#
# Track frame offsets:
#	150
#	15187
#	26275
#	39840
#	54360
#	70582
#	84165
#	95229
#	111985
#	128810
# Disc length: 1978 seconds
# Revision: 1
# Processed by: cddbd v1.5.2PL0 Copyright (c) Steve Scherf et al.
#
# Submitted via: libkcddb 0.31
#
DISCID=6b07b80a
DTITLE=Sylvia - All American Country
DYEAR=2007
DGENRE=Country
TTITLE0=Nobody
TTITLE1=Drifter
TTITLE2=Fallin' In Love
TTITLE3=Tumbleweed
TTITLE4=The Matador
TTITLE5=Cry Just A Little Bit
TTITLE6=Isn't It Always Love
TTITLE7=Like Nothing Ever Happened
TTITLE8=Snapshot
TTITLE9=You Can't Go Back Home
EXTD=
EXTT0=
EXTT1=
EXTT2=
EXTT3=
EXTT4=
EXTT5=
EXTT6=
EXTT7=
EXTT8=
EXTT9=
PLAYORDER=
